<!-- Source: Figma -->
<svg width="64" height="10" viewBox="0 0 64 10" fill="none" xmlns="http://www.w3.org/2000/svg">
<g clip-path="url(#clip0_5177_10338)">
<path d="M23.2591 9.98996H13.5313C13.3665 9.99117 13.2043 9.94867 13.0612 9.86679C12.9181 9.78492 12.7993 9.66658 12.7168 9.52387C12.6343 9.38112 12.5912 9.21908 12.5917 9.05425C12.5922 8.88942 12.6364 8.72762 12.7198 8.58542L17.3185 0.620663C17.4275 0.431946 17.5843 0.275246 17.773 0.1663C17.9618 0.0573533 18.1759 0 18.3938 0C18.6118 0 18.8259 0.0573533 19.0147 0.1663C19.2034 0.275246 19.3602 0.431946 19.4692 0.620663L24.0679 8.58542C24.1513 8.72762 24.1955 8.88942 24.196 9.05425C24.1966 9.21908 24.1533 9.38112 24.0709 9.52387C23.9884 9.66658 23.8696 9.78492 23.7265 9.86679C23.5835 9.94867 23.4212 9.99117 23.2564 9.98996H23.2591ZM15.1557 8.11771H21.6373L18.3965 2.50358L15.1557 8.11771Z" fill="url(#paint0_linear_5177_10338)"/>
<path d="M62.22 9.98996H52.492C52.3275 9.99092 52.1654 9.94825 52.0225 9.86629C51.8795 9.78429 51.7608 9.66596 51.6787 9.52329C51.5962 9.38058 51.5533 9.21863 51.5537 9.05392C51.5545 8.88917 51.5987 8.72754 51.682 8.58542L56.2791 0.620663C56.3883 0.431946 56.545 0.275246 56.7337 0.1663C56.9225 0.0573533 57.1366 0 57.3545 0C57.5725 0 57.7866 0.0573533 57.9754 0.1663C58.1641 0.275246 58.3208 0.431946 58.43 0.620663L63.0287 8.58542C63.112 8.72762 63.1562 8.88942 63.1566 9.05425C63.1575 9.21908 63.1141 9.38112 63.0316 9.52387C62.9491 9.66658 62.8304 9.78492 62.6875 9.86679C62.5441 9.94867 62.382 9.99117 62.217 9.98996H62.22ZM54.1179 8.11771H60.5996L57.3575 2.50358L54.1179 8.11771Z" fill="white"/>
<path d="M36.2613 0.194336H35.0793C34.8222 0.194336 34.6942 0.327593 34.6942 0.594106V6.93448L29.0162 0.342251C28.9784 0.296398 28.931 0.25939 28.8773 0.233833C28.8237 0.208277 28.7651 0.194795 28.7057 0.194336H27.2398C26.984 0.194336 26.8547 0.327593 26.8547 0.594106V9.59561C26.8547 9.86211 26.988 9.9954 27.2398 9.9954H28.4218C28.679 9.9954 28.8069 9.86211 28.8069 9.59561V3.11533L34.6396 9.86611C34.6724 9.90919 34.715 9.94377 34.7639 9.96698C34.8129 9.99015 34.8667 10.0013 34.9208 9.9994H36.2533C36.5105 9.9994 36.6398 9.86611 36.6398 9.59961V0.594106C36.6438 0.327593 36.5145 0.194336 36.2613 0.194336Z" fill="white"/>
<path d="M49.3404 9.35977L45.5892 4.86631L48.8725 0.847301C48.9292 0.770064 48.9596 0.676618 48.9592 0.580789C48.9667 0.528501 48.9617 0.475235 48.945 0.425176C48.9279 0.375116 48.9 0.329631 48.8625 0.292301C48.8254 0.254971 48.7796 0.226815 48.7296 0.210047C48.6796 0.19328 48.6263 0.18836 48.5742 0.195675H46.9484C46.8888 0.194056 46.8292 0.206614 46.7754 0.232325C46.7213 0.258035 46.6742 0.296165 46.6379 0.34359L44.3325 3.28457L42.0259 0.352918C41.9896 0.300795 41.9409 0.258602 41.884 0.230201C41.8272 0.201799 41.7642 0.188096 41.7007 0.190344H40.0724C40.0201 0.182974 39.9669 0.187867 39.9169 0.204636C39.8669 0.221404 39.8214 0.249588 39.7842 0.286954C39.7469 0.324321 39.7189 0.369846 39.7023 0.419922C39.6857 0.469997 39.681 0.523247 39.6886 0.575456C39.6877 0.671347 39.7181 0.76491 39.7752 0.841972L43.0571 4.86765L39.3194 9.34511C39.2527 9.41773 39.216 9.51298 39.2168 9.61161C39.2168 9.86748 39.3501 9.9954 39.6166 9.9954H41.3249C41.3881 9.9959 41.4506 9.98144 41.5071 9.95319C41.5636 9.92494 41.6126 9.88369 41.6501 9.83281L44.3259 6.4774L47.015 9.86348C47.0538 9.90698 47.1017 9.94148 47.1554 9.96452C47.2092 9.98752 47.2671 9.99852 47.3254 9.99673H49.0404C49.0925 10.004 49.1459 9.99915 49.1954 9.98248C49.2454 9.96577 49.2909 9.93769 49.3279 9.90048C49.3654 9.86327 49.3934 9.81794 49.41 9.76806C49.4267 9.71815 49.4317 9.66506 49.4242 9.61294C49.4288 9.52106 49.3988 9.43081 49.3404 9.35977Z" fill="white"/>
<path d="M9.29804 4.85025C9.69438 4.35008 9.90783 3.72943 9.903 3.09127C9.90833 2.70882 9.83421 2.32944 9.68538 1.97711C9.5365 1.62479 9.31612 1.3072 9.03817 1.04444C8.76742 0.769912 8.44392 0.553053 8.08708 0.406937C7.73025 0.260821 7.34754 0.188476 6.96204 0.194264H1.15336C1.09905 0.186459 1.04366 0.191419 0.9916 0.208749C0.939538 0.226079 0.89223 0.255304 0.85343 0.294104C0.81463 0.332904 0.785405 0.380211 0.768075 0.432274C0.750745 0.484337 0.745786 0.53972 0.753591 0.594037V9.59554C0.753591 9.86204 0.886847 9.99529 1.15336 9.99529H7.46442C7.85067 10.003 8.2345 9.93233 8.59271 9.78758C8.95092 9.64283 9.27604 9.427 9.54854 9.15312C9.82554 8.891 10.0451 8.57417 10.1933 8.22275C10.3415 7.87133 10.415 7.49296 10.4094 7.11162C10.42 6.67304 10.3244 6.23842 10.1309 5.84471C9.93742 5.451 9.65171 5.10983 9.29804 4.85025ZM2.70447 2.3397C2.69716 2.28724 2.70212 2.2338 2.71896 2.18359C2.7358 2.13337 2.76405 2.08774 2.8015 2.05029C2.83895 2.01284 2.88458 1.98458 2.9348 1.96774C2.98502 1.95091 3.03846 1.94595 3.09092 1.95325H6.93004C7.062 1.95342 7.19225 1.98292 7.31142 2.03961C7.43058 2.0963 7.53562 2.17878 7.619 2.28107C7.80583 2.5056 7.90817 2.78849 7.90817 3.08061C7.90817 3.37272 7.80583 3.65561 7.619 3.88015C7.53675 3.98417 7.43204 4.06827 7.31275 4.12618C7.1935 4.18408 7.06267 4.21433 6.93004 4.21462H3.09092C3.0384 4.22221 2.98485 4.21746 2.9345 4.20071C2.88415 4.184 2.8384 4.15574 2.80088 4.11822C2.76336 4.0807 2.73511 4.03495 2.71837 3.9846C2.70164 3.93425 2.69688 3.88069 2.70447 3.82818V2.3397ZM8.12137 7.90317C8.03871 8.00654 7.93392 8.09004 7.81467 8.14746C7.69542 8.20492 7.56479 8.23483 7.43242 8.235H3.09092C2.83373 8.235 2.70447 8.10175 2.70447 7.83521V6.36937C2.70447 6.10287 2.83773 5.96962 3.09092 5.96962H7.43242C7.56487 5.97012 7.6955 6.00033 7.81471 6.058C7.93392 6.11562 8.03871 6.19929 8.12137 6.30275C8.31358 6.52417 8.41667 6.80917 8.41054 7.10229C8.41896 7.39625 8.31562 7.68242 8.12137 7.90317Z" fill="white"/>
</g>
<defs>
<linearGradient id="paint0_linear_5177_10338" x1="14.4588" y1="11.3012" x2="22.3356" y2="3.42439" gradientUnits="userSpaceOnUse">
<stop stop-color="#0073D1"/>
<stop offset="0.06" stop-color="#0082CE"/>
<stop offset="0.22" stop-color="#00A0C9"/>
<stop offset="0.39" stop-color="#00B8C4"/>
<stop offset="0.57" stop-color="#00C9C1"/>
<stop offset="0.76" stop-color="#00D3C0"/>
<stop offset="1" stop-color="#00D6BF"/>
</linearGradient>
<clipPath id="clip0_5177_10338">
<rect width="62.5" height="10" fill="white" transform="translate(0.75)"/>
</clipPath>
</defs>
</svg>
