<svg width="47" height="47" viewBox="0 0 47 47" fill="none" xmlns="http://www.w3.org/2000/svg">
<g clip-path="url(#clip0_911_384390)">
<path d="M46.3005 28.7389C43.21 41.1346 30.6552 48.6785 18.2581 45.5873C5.86598 42.4969 -1.67789 29.9414 1.41399 17.5464C4.50297 5.14923 17.0578 -2.39534 29.4513 0.695086C41.8477 3.78552 49.3909 16.3425 46.3005 28.7389Z" fill="#F7931A"/>
<path d="M34.0587 19.8451C34.5193 16.7662 32.175 15.1111 28.9696 14.0069L30.0094 9.83623L27.4707 9.20354L26.4584 13.2643C25.791 13.098 25.1055 12.9411 24.4244 12.7857L25.4439 8.69811L22.9066 8.06541L21.8661 12.2347C21.3137 12.1089 20.7714 11.9845 20.245 11.8536L20.2479 11.8406L16.7468 10.9664L16.0714 13.6779C16.0714 13.6779 17.955 14.1096 17.9152 14.1364C18.9435 14.3931 19.1293 15.0735 19.0982 15.6129L17.9138 20.3642C17.9847 20.3823 18.0765 20.4083 18.1777 20.4488C18.0931 20.4279 18.0027 20.4047 17.9095 20.3823L16.2493 27.0382C16.1234 27.3506 15.8046 27.8192 15.0858 27.6413C15.1112 27.6782 13.2406 27.1807 13.2406 27.1807L11.9802 30.0867L15.284 30.9103C15.8986 31.0643 16.5009 31.2256 17.0938 31.3774L16.0432 35.5958L18.579 36.2285L19.6195 32.0549C20.3122 32.2429 20.9847 32.4165 21.6427 32.5799L20.6058 36.734L23.1445 37.3667L24.1952 33.1562C28.5242 33.9754 31.7795 33.645 33.1498 29.7295C34.2539 26.5769 33.0948 24.7584 30.8171 23.5725C32.4758 23.19 33.7253 22.0989 34.0587 19.8451ZM28.2581 27.979C27.4736 31.1316 22.1655 29.4273 20.4446 28.9999L21.8387 23.4113C23.5596 23.8408 29.0781 24.6911 28.2581 27.979ZM29.0434 19.7995C28.3275 22.6672 23.9095 21.2102 22.4764 20.853L23.7404 15.7843C25.1735 16.1415 29.7889 16.8081 29.0434 19.7995Z" fill="white"/>
</g>
<defs>
<clipPath id="clip0_911_384390">
<rect width="47" height="47" fill="white"/>
</clipPath>
</defs>
</svg>
