<svg width="146" height="146" viewBox="0 0 146 146" fill="none" xmlns="http://www.w3.org/2000/svg">
<g clip-path="url(#clip0_864_64)">
<rect width="146" height="146" rx="73" fill="url(#paint0_linear_864_64)"/>
<rect width="146" height="146" rx="73" fill="white"/>
<rect x="0.5" y="0.5" width="145" height="145" rx="72.5" stroke="black" stroke-opacity="0.1"/>
<path fill-rule="evenodd" clip-rule="evenodd" d="M16.3837 77.2052C18.434 105.206 40.794 127.566 68.7949 129.616V135.94C37.3087 133.867 12.133 108.691 10.0605 77.2052H16.3837Z" fill="url(#paint1_linear_864_64)"/>
<path fill-rule="evenodd" clip-rule="evenodd" d="M68.7646 16.3534C40.7638 18.4036 18.4037 40.7637 16.3535 68.7646L10.0303 68.7646C12.1027 37.2784 37.2785 12.1026 68.7646 10.0302L68.7646 16.3534Z" fill="#29ABE2"/>
<path fill-rule="evenodd" clip-rule="evenodd" d="M129.616 68.7343C127.566 40.7334 105.206 18.3733 77.2051 16.3231L77.2051 9.99998C108.691 12.0724 133.867 37.2481 135.939 68.7343L129.616 68.7343Z" fill="url(#paint2_linear_864_64)"/>
<path fill-rule="evenodd" clip-rule="evenodd" d="M77.2354 129.586C105.236 127.536 127.596 105.176 129.647 77.1749L135.97 77.1749C133.897 108.661 108.722 133.837 77.2354 135.909L77.2354 129.586Z" fill="#29ABE2"/>
<path d="M72.4841 31L71.9272 32.8915V87.773L72.4841 88.3285L97.959 73.2701L72.4841 31Z" fill="#343434"/>
<path d="M72.4784 31L47.0029 73.2701L72.4784 88.3285V61.6906V31Z" fill="#8C8C8C"/>
<path d="M72.4842 93.1515L72.1704 93.5342V113.084L72.4842 114L97.9747 78.1009L72.4842 93.1515Z" fill="#3C3C3B"/>
<path d="M72.4784 114V93.1515L47.0029 78.1009L72.4784 114Z" fill="#8C8C8C"/>
<path d="M72.4946 88.3276L97.9695 73.2692L72.4946 61.6896V88.3276Z" fill="#141414"/>
<path d="M47.0029 73.2692L72.4784 88.3276V61.6896L47.0029 73.2692Z" fill="#393939"/>
<g filter="url(#filter0_b_864_64)">
<path d="M21 112C21 102.209 28.9368 94.2727 38.7273 94.2727H107.273C117.063 94.2727 125 102.209 125 112V112C125 121.79 117.063 129.727 107.273 129.727H38.7273C28.9368 129.727 21 121.79 21 112V112Z" fill="white"/>
<path d="M38.7273 94.7727H107.273C116.787 94.7727 124.5 102.486 124.5 112C124.5 121.514 116.787 129.227 107.273 129.227H38.7273C29.2129 129.227 21.5 121.514 21.5 112C21.5 102.486 29.2129 94.7727 38.7273 94.7727Z" stroke="black" stroke-opacity="0.05"/>
</g>
<path d="M53.9716 106.682C52.5842 106.682 51.0718 107.399 49.4733 108.811C48.7149 109.48 48.06 110.197 47.5688 110.77C47.5688 110.77 47.5688 110.77 47.5732 110.775V110.77C47.5732 110.77 48.3487 111.622 49.2061 112.534C49.6672 111.983 50.3308 111.231 51.0933 110.553C52.5153 109.297 53.4416 109.032 53.9716 109.032C55.9667 109.032 57.5867 110.627 57.5867 112.587C57.5867 114.533 55.9623 116.128 53.9716 116.141C53.8811 116.141 53.7648 116.128 53.6183 116.097C54.2 116.349 54.8248 116.532 55.4194 116.532C59.0732 116.532 59.7885 114.129 59.8359 113.955C59.9436 113.516 59.9996 113.056 59.9996 112.582C59.9996 109.332 57.2937 106.682 53.9716 106.682Z" fill="url(#paint3_linear_864_64)"/>
<path d="M41.2096 118.5C42.597 118.5 44.1094 117.783 45.708 116.371C46.4663 115.702 47.1213 114.985 47.6124 114.411C47.6124 114.411 47.6124 114.411 47.6081 114.407V114.411C47.6081 114.411 46.8326 113.56 45.9751 112.647C45.5141 113.199 44.8505 113.951 44.0879 114.629C42.666 115.884 41.7396 116.149 41.2096 116.149C39.2146 116.145 37.5946 114.551 37.5946 112.591C37.5946 110.644 39.219 109.05 41.2096 109.037C41.3001 109.037 41.4164 109.05 41.5629 109.08C40.9813 108.828 40.3565 108.646 39.7619 108.646C36.108 108.646 35.3971 111.049 35.3454 111.218C35.2377 111.661 35.1816 112.117 35.1816 112.591C35.1816 115.85 37.8875 118.5 41.2096 118.5Z" fill="url(#paint4_linear_864_64)"/>
<path d="M55.4112 116.48C53.5411 116.432 51.5979 114.946 51.2015 114.576C50.1761 113.621 47.8104 111.035 47.6253 110.831C45.8931 108.872 43.5448 106.682 41.2095 106.682H41.2051H41.2008C38.3657 106.695 35.9829 108.633 35.3452 111.218C35.3926 111.048 36.3276 108.598 39.7574 108.685C41.6274 108.733 43.5793 110.24 43.98 110.61C45.0055 111.565 47.371 114.151 47.5563 114.355C49.2884 116.31 51.6367 118.5 53.972 118.5H53.9763H53.9806C56.8158 118.487 59.2029 116.549 59.8363 113.964C59.7846 114.133 58.8452 116.562 55.4112 116.48Z" fill="#29ABE2"/>
<path d="M79.8431 109.028H76.1369V118.591H73.8371V109.028H70.1309V106.86H79.8431V109.028ZM89.1605 118.591H81.8143V106.86H89.1605V109.011H84.0976V111.691H88.6807V113.727H84.0976V116.44H89.1605V118.591ZM99.6354 109.656L97.5838 110.285C97.468 109.64 96.9385 108.631 95.4494 108.631C94.3409 108.631 93.6129 109.342 93.6129 110.12C93.6129 110.765 94.0265 111.278 94.8869 111.443L96.5249 111.758C98.6593 112.171 99.8009 113.561 99.8009 115.216C99.8009 117.019 98.2953 118.839 95.5653 118.839C92.4547 118.839 91.0814 116.837 90.8994 115.166L93.0173 114.603C93.1165 115.762 93.9273 116.804 95.5818 116.804C96.8062 116.804 97.4845 116.192 97.4845 115.365C97.4845 114.686 96.9716 114.157 96.0616 113.975L94.4236 113.644C92.554 113.263 91.3462 112.055 91.3462 110.285C91.3462 108.2 93.2158 106.612 95.4329 106.612C98.2787 106.612 99.3707 108.333 99.6354 109.656ZM110.776 109.028H107.07V118.591H104.77V109.028H101.064V106.86H110.776V109.028Z" fill="#181818"/>
</g>
<defs>
<filter id="filter0_b_864_64" x="-26.2727" y="47" width="198.545" height="130" filterUnits="userSpaceOnUse" color-interpolation-filters="sRGB">
<feFlood flood-opacity="0" result="BackgroundImageFix"/>
<feGaussianBlur in="BackgroundImageFix" stdDeviation="23.6364"/>
<feComposite in2="SourceAlpha" operator="in" result="effect1_backgroundBlur_864_64"/>
<feBlend mode="normal" in="SourceGraphic" in2="effect1_backgroundBlur_864_64" result="shape"/>
</filter>
<linearGradient id="paint0_linear_864_64" x1="15" y1="-75.5" x2="92" y2="125.5" gradientUnits="userSpaceOnUse">
<stop stop-color="#D9D9D9"/>
<stop offset="0.588542" stop-color="white"/>
</linearGradient>
<linearGradient id="paint1_linear_864_64" x1="53.4736" y1="122.79" x2="14.0362" y2="89.5786" gradientUnits="userSpaceOnUse">
<stop offset="0.21" stop-color="#ED1E79"/>
<stop offset="1" stop-color="#522785"/>
</linearGradient>
<linearGradient id="paint2_linear_864_64" x1="120.65" y1="55.6021" x2="81.213" y2="22.3914" gradientUnits="userSpaceOnUse">
<stop offset="0.21" stop-color="#F15A24"/>
<stop offset="0.6841" stop-color="#FBB03B"/>
</linearGradient>
<linearGradient id="paint3_linear_864_64" x1="50.8337" y1="107.461" x2="59.1002" y2="115.95" gradientUnits="userSpaceOnUse">
<stop offset="0.21" stop-color="#F15A24"/>
<stop offset="0.6841" stop-color="#FBB03B"/>
</linearGradient>
<linearGradient id="paint4_linear_864_64" x1="44.3475" y1="117.721" x2="36.081" y2="109.232" gradientUnits="userSpaceOnUse">
<stop offset="0.21" stop-color="#ED1E79"/>
<stop offset="0.8929" stop-color="#522785"/>
</linearGradient>
<clipPath id="clip0_864_64">
<rect width="146" height="146" rx="73" fill="white"/>
</clipPath>
</defs>
</svg>
