<svg width="252" height="62" viewBox="0 0 252 62" fill="none" xmlns="http://www.w3.org/2000/svg">
    <path d="M1.96622 56.168C2.03342 56.168 2.11022 56.2256 2.19662 56.3408C2.28302 56.456 2.34062 56.5376 2.36942 56.5856L5.24942 61.1504C5.28782 61.208 5.34062 61.2608 5.40782 61.3088C5.48462 61.3472 5.56622 61.3664 5.65262 61.3664H6.63182C6.79502 61.3664 6.91502 61.3232 6.99182 61.2368C7.06862 61.1504 7.10702 61.0544 7.10702 60.9488V53.4176C7.10702 53.312 7.06862 53.216 6.99182 53.1296C6.91502 53.0432 6.79502 53 6.63182 53H5.96942C5.80622 53 5.68622 53.0432 5.60942 53.1296C5.54222 53.216 5.50862 53.312 5.50862 53.4176V57.5936C5.50862 57.6992 5.50382 57.8048 5.49422 57.9104C5.48462 58.0064 5.44142 58.0928 5.36462 58.1696C5.29742 58.1696 5.22062 58.112 5.13422 57.9968C5.04782 57.8816 4.99022 57.8 4.96142 57.752L2.12462 53.216C2.08622 53.1584 2.02862 53.1104 1.95182 53.072C1.88462 53.024 1.80782 53 1.72142 53H0.699022C0.535822 53 0.415822 53.0432 0.339022 53.1296C0.271822 53.216 0.238222 53.312 0.238222 53.4176V60.9488C0.238222 61.0544 0.271822 61.1504 0.339022 61.2368C0.415822 61.3232 0.535822 61.3664 0.699022 61.3664H1.36142C1.52462 61.3664 1.64462 61.3232 1.72142 61.2368C1.79822 61.1504 1.83662 61.0544 1.83662 60.9488V56.744C1.83662 56.7152 1.83662 56.672 1.83662 56.6144C1.83662 56.5472 1.84142 56.4752 1.85102 56.3984C1.86062 56.3696 1.86542 56.3408 1.86542 56.312C1.87502 56.2736 1.88942 56.2448 1.90862 56.2256L1.96622 56.168ZM18.4156 54.5696C18.5692 54.5696 18.6844 54.5264 18.7612 54.44C18.838 54.3536 18.8764 54.2576 18.8764 54.152V53.4176C18.8764 53.312 18.838 53.216 18.7612 53.1296C18.6844 53.0432 18.5692 53 18.4156 53H13.75C13.5868 53 13.4668 53.0432 13.39 53.1296C13.3228 53.216 13.2892 53.312 13.2892 53.4176V60.9488C13.2892 61.0544 13.3228 61.1504 13.39 61.2368C13.4668 61.3232 13.5868 61.3664 13.75 61.3664H18.4156C18.5692 61.3664 18.6844 61.3232 18.7612 61.2368C18.838 61.1504 18.8764 61.0544 18.8764 60.9488V60.2144C18.8764 60.1088 18.838 60.0128 18.7612 59.9264C18.6844 59.84 18.5692 59.7968 18.4156 59.7968H15.2188C15.1132 59.7968 15.0364 59.768 14.9884 59.7104C14.95 59.6528 14.9308 59.5856 14.9308 59.5088V58.1696C14.9308 58.0928 14.95 58.0256 14.9884 57.968C15.0364 57.9104 15.1132 57.8816 15.2188 57.8816H17.8108C17.974 57.8816 18.094 57.8384 18.1708 57.752C18.2476 57.6656 18.286 57.5696 18.286 57.464V56.816C18.286 56.7104 18.2476 56.6192 18.1708 56.5424C18.094 56.456 17.974 56.4128 17.8108 56.4128H15.2188C15.1132 56.4128 15.0364 56.384 14.9884 56.3264C14.95 56.2688 14.9308 56.2016 14.9308 56.1248V54.8576C14.9308 54.7808 14.95 54.7136 14.9884 54.656C15.0364 54.5984 15.1132 54.5696 15.2188 54.5696H18.4156ZM24.2783 53C24.1151 53 23.9951 53.0432 23.9183 53.1296C23.8511 53.216 23.8175 53.312 23.8175 53.4176V54.1376C23.8175 54.2432 23.8511 54.3392 23.9183 54.4256C23.9951 54.5024 24.1151 54.5408 24.2783 54.5408H25.8335C25.9295 54.5408 26.0015 54.5696 26.0495 54.6272C26.0975 54.6848 26.1215 54.752 26.1215 54.8288V60.9488C26.1215 61.0544 26.1551 61.1504 26.2223 61.2368C26.2991 61.3232 26.4191 61.3664 26.5823 61.3664H27.2879C27.4511 61.3664 27.5663 61.3232 27.6335 61.2368C27.7103 61.1504 27.7487 61.0544 27.7487 60.9488V54.8288C27.7487 54.752 27.7727 54.6848 27.8207 54.6272C27.8687 54.5696 27.9455 54.5408 28.0511 54.5408H29.5919C29.7455 54.5408 29.8607 54.5024 29.9375 54.4256C30.0143 54.3392 30.0527 54.2432 30.0527 54.1376V53.4176C30.0527 53.312 30.0143 53.216 29.9375 53.1296C29.8607 53.0432 29.7455 53 29.5919 53H24.2783ZM35.4788 53C35.2868 53 35.1236 53.0288 34.9892 53.0864C34.8548 53.144 34.7876 53.264 34.7876 53.4464C34.7876 53.5232 34.7924 53.5808 34.802 53.6192L36.746 60.992C36.7652 61.0784 36.818 61.1648 36.9044 61.2512C36.9908 61.328 37.106 61.3664 37.25 61.3664H37.898C38.0324 61.3664 38.138 61.328 38.2148 61.2512C38.3012 61.1744 38.3588 61.0976 38.3876 61.0208C38.4452 60.8576 38.498 60.6944 38.546 60.5312C38.594 60.368 38.642 60.2048 38.69 60.0416C38.8628 59.5136 39.0308 58.9856 39.194 58.4576C39.3668 57.9296 39.5348 57.4016 39.698 56.8736C39.7076 56.8448 39.722 56.8016 39.7412 56.744C39.77 56.6768 39.7988 56.6144 39.8276 56.5568C39.8564 56.4992 39.89 56.4464 39.9284 56.3984C39.9668 56.3504 40.0004 56.3264 40.0292 56.3264C40.0676 56.3264 40.1012 56.3504 40.13 56.3984C40.1684 56.4464 40.202 56.504 40.2308 56.5712C40.2596 56.6288 40.2836 56.6912 40.3028 56.7584C40.322 56.816 40.3364 56.8592 40.346 56.888L41.5124 61.0064C41.5412 61.0928 41.5988 61.1744 41.6852 61.2512C41.7716 61.328 41.882 61.3664 42.0164 61.3664H42.362C42.5252 61.3664 42.6836 61.352 42.8372 61.3232C43.0004 61.2944 43.106 61.184 43.154 60.992L45.2276 53.6192C45.2468 53.5424 45.2564 53.4848 45.2564 53.4464C45.2564 53.2544 45.1892 53.1344 45.0548 53.0864C44.93 53.0384 44.7956 53.0096 44.6516 53H44.4644H44.3204C44.1476 53 44.0036 53.024 43.8884 53.072C43.7732 53.12 43.6916 53.2208 43.6436 53.3744L42.65 56.96C42.6308 57.0272 42.6116 57.0944 42.5924 57.1616C42.5732 57.2192 42.5492 57.2768 42.5204 57.3344C42.5108 57.3536 42.4868 57.3776 42.4484 57.4064C42.4196 57.4352 42.338 57.464 42.2036 57.4928C42.146 57.416 42.098 57.3344 42.0596 57.248C42.0308 57.152 42.0068 57.056 41.9876 56.96L41.0084 53.3744C40.9796 53.2784 40.922 53.192 40.8356 53.1152C40.7492 53.0384 40.6388 53 40.5044 53H39.626C39.4916 53 39.3812 53.0384 39.2948 53.1152C39.218 53.192 39.1652 53.2736 39.1364 53.36C38.9156 54.0032 38.714 54.6512 38.5316 55.304C38.3492 55.9472 38.1572 56.5952 37.9556 57.248C37.946 57.2672 37.9316 57.3056 37.9124 57.3632C37.8932 57.4208 37.8692 57.4784 37.8404 57.536C37.8212 57.5744 37.7972 57.608 37.7684 57.6368C37.7492 57.656 37.6916 57.6752 37.5956 57.6944C37.5476 57.6368 37.5092 57.5648 37.4804 57.4784C37.4516 57.392 37.4276 57.3104 37.4084 57.2336L36.386 53.3744C36.338 53.192 36.242 53.0864 36.098 53.0576C35.954 53.0192 35.8052 53 35.6516 53H35.4788ZM54.3353 61.5536C54.9305 61.5536 55.4777 61.4336 55.9769 61.1936C56.4857 60.9536 56.9177 60.632 57.2729 60.2288C57.6377 59.8256 57.9209 59.36 58.1225 58.832C58.3241 58.304 58.4249 57.7568 58.4249 57.1904C58.4249 56.624 58.3241 56.0768 58.1225 55.5488C57.9209 55.0208 57.6377 54.5552 57.2729 54.152C56.9177 53.7488 56.4857 53.4272 55.9769 53.1872C55.4777 52.9376 54.9305 52.8128 54.3353 52.8128C53.7401 52.8128 53.1929 52.9376 52.6937 53.1872C52.2041 53.4272 51.7769 53.7488 51.4121 54.152C51.0569 54.5552 50.7785 55.0208 50.5769 55.5488C50.3753 56.0768 50.2745 56.624 50.2745 57.1904C50.2745 57.7568 50.3753 58.304 50.5769 58.832C50.7785 59.3504 51.0569 59.8112 51.4121 60.2144C51.7769 60.6176 52.2041 60.944 52.6937 61.1936C53.1929 61.4336 53.7401 61.5536 54.3353 61.5536ZM54.3353 59.9984C53.9129 59.9984 53.5433 59.9072 53.2265 59.7248C52.9193 59.5328 52.6649 59.2976 52.4633 59.0192C52.2617 58.7312 52.1129 58.424 52.0169 58.0976C51.9209 57.7712 51.8729 57.4688 51.8729 57.1904C51.8729 56.912 51.9209 56.6096 52.0169 56.2832C52.1129 55.9568 52.2617 55.6544 52.4633 55.376C52.6649 55.088 52.9193 54.848 53.2265 54.656C53.5433 54.464 53.9129 54.368 54.3353 54.368C54.7673 54.368 55.1369 54.464 55.4441 54.656C55.7609 54.848 56.0201 55.088 56.2217 55.376C56.4233 55.6544 56.5721 55.9568 56.6681 56.2832C56.7641 56.6096 56.8121 56.912 56.8121 57.1904C56.8121 57.4688 56.7641 57.7712 56.6681 58.0976C56.5721 58.424 56.4233 58.7312 56.2217 59.0192C56.0201 59.2976 55.7609 59.5328 55.4441 59.7248C55.1369 59.9072 54.7673 59.9984 54.3353 59.9984ZM65.6639 54.872C65.6639 54.776 65.6879 54.6944 65.7359 54.6272C65.7935 54.56 65.8847 54.5216 66.0095 54.512H66.6863C67.1759 54.512 67.5551 54.5648 67.8239 54.6704C68.0927 54.776 68.2271 55.04 68.2271 55.4624C68.2271 55.7216 68.1359 55.9328 67.9535 56.096C67.7807 56.2496 67.5167 56.3264 67.1615 56.3264H66.0095C65.8847 56.3264 65.7935 56.288 65.7359 56.2112C65.6879 56.1344 65.6639 56.048 65.6639 55.952V54.872ZM65.1455 61.3664C65.3375 61.3664 65.4719 61.3136 65.5487 61.208C65.6255 61.0928 65.6639 60.9776 65.6639 60.8624V58.112C65.6639 58.0352 65.6831 57.9632 65.7215 57.896C65.7695 57.8288 65.8463 57.7952 65.9519 57.7952C66.0575 57.7952 66.1391 57.8048 66.1967 57.824C66.2639 57.8432 66.3215 57.8912 66.3695 57.968L68.2559 61.1072C68.2943 61.1744 68.3519 61.2368 68.4287 61.2944C68.5055 61.3424 68.5967 61.3664 68.7023 61.3664H69.3647C69.5279 61.3664 69.6623 61.3376 69.7679 61.28C69.8831 61.2128 69.9407 61.112 69.9407 60.9776C69.9407 60.9104 69.9263 60.848 69.8975 60.7904C69.8783 60.7328 69.8543 60.68 69.8255 60.632L68.3711 58.1696C68.3135 58.0832 68.2847 57.9968 68.2847 57.9104C68.2847 57.824 68.3087 57.7568 68.3567 57.7088C68.4143 57.6608 68.4959 57.6128 68.6015 57.5648C69.1295 57.3152 69.4991 57.0176 69.7103 56.672C69.9311 56.3264 70.0415 55.9232 70.0415 55.4624C70.0415 54.5888 69.7583 53.96 69.1919 53.576C68.6255 53.192 67.7903 53 66.6863 53H64.4687C64.2767 53.0096 64.1423 53.0672 64.0655 53.1728C63.9887 53.2688 63.9503 53.3744 63.9503 53.4896V60.8624C63.9503 60.9776 63.9887 61.0928 64.0655 61.208C64.1519 61.3136 64.2863 61.3664 64.4687 61.3664H65.1455ZM76.2994 53C76.117 53 75.9826 53.0576 75.8962 53.1728C75.8194 53.2784 75.781 53.3888 75.781 53.504V60.8768C75.781 60.9824 75.8194 61.0928 75.8962 61.208C75.9826 61.3136 76.117 61.3664 76.2994 61.3664H76.9762C77.1682 61.3664 77.3026 61.3136 77.3794 61.208C77.4562 61.0928 77.4946 60.9824 77.4946 60.8768V59.192C77.4946 59.1248 77.5042 59.0288 77.5234 58.904C77.5426 58.7696 77.6002 58.7024 77.6962 58.7024C77.7634 58.7024 77.8306 58.7312 77.8978 58.7888C77.965 58.8368 78.0226 58.8848 78.0706 58.9328L80.4034 61.208C80.509 61.3136 80.629 61.3664 80.7634 61.3664H81.5986C81.733 61.3664 81.8722 61.3424 82.0162 61.2944C82.1602 61.2464 82.2322 61.1552 82.2322 61.0208C82.2322 60.9248 82.2034 60.8384 82.1458 60.7616C82.0978 60.6848 82.0402 60.6128 81.973 60.5456C81.6754 60.2384 81.3682 59.9312 81.0514 59.624C80.7442 59.3168 80.4322 59.0096 80.1154 58.7024C79.8946 58.4816 79.669 58.2656 79.4386 58.0544C79.2082 57.8432 78.9826 57.6224 78.7618 57.392C78.685 57.3152 78.6466 57.2288 78.6466 57.1328C78.6466 57.0272 78.6898 56.9408 78.7762 56.8736L81.901 53.8208C81.9682 53.7632 82.0306 53.696 82.0882 53.6192C82.1554 53.5328 82.189 53.4416 82.189 53.3456C82.189 53.2016 82.1122 53.1104 81.9586 53.072C81.8146 53.024 81.6754 53 81.541 53H80.677C80.5426 53 80.4226 53.0528 80.317 53.1584L78.0706 55.3328C78.0226 55.3808 77.965 55.4336 77.8978 55.4912C77.8306 55.5392 77.7634 55.5632 77.6962 55.5632C77.6002 55.5632 77.5426 55.496 77.5234 55.3616C77.5042 55.2272 77.4946 55.1264 77.4946 55.0592V53.504C77.4946 53.3888 77.4562 53.2784 77.3794 53.1728C77.3026 53.0576 77.1682 53 76.9762 53H76.2994ZM97.6053 56.168C97.6725 56.168 97.7493 56.2256 97.8357 56.3408C97.9221 56.456 97.9797 56.5376 98.0085 56.5856L100.888 61.1504C100.927 61.208 100.98 61.2608 101.047 61.3088C101.124 61.3472 101.205 61.3664 101.292 61.3664H102.271C102.434 61.3664 102.554 61.3232 102.631 61.2368C102.708 61.1504 102.746 61.0544 102.746 60.9488V53.4176C102.746 53.312 102.708 53.216 102.631 53.1296C102.554 53.0432 102.434 53 102.271 53H101.608C101.445 53 101.325 53.0432 101.248 53.1296C101.181 53.216 101.148 53.312 101.148 53.4176V57.5936C101.148 57.6992 101.143 57.8048 101.133 57.9104C101.124 58.0064 101.08 58.0928 101.004 58.1696C100.936 58.1696 100.86 58.112 100.773 57.9968C100.687 57.8816 100.629 57.8 100.6 57.752L97.7637 53.216C97.7253 53.1584 97.6677 53.1104 97.5909 53.072C97.5237 53.024 97.4469 53 97.3605 53H96.3381C96.1749 53 96.0549 53.0432 95.9781 53.1296C95.9109 53.216 95.8773 53.312 95.8773 53.4176V60.9488C95.8773 61.0544 95.9109 61.1504 95.9781 61.2368C96.0549 61.3232 96.1749 61.3664 96.3381 61.3664H97.0005C97.1637 61.3664 97.2837 61.3232 97.3605 61.2368C97.4373 61.1504 97.4757 61.0544 97.4757 60.9488V56.744C97.4757 56.7152 97.4757 56.672 97.4757 56.6144C97.4757 56.5472 97.4805 56.4752 97.4901 56.3984C97.4997 56.3696 97.5045 56.3408 97.5045 56.312C97.5141 56.2736 97.5285 56.2448 97.5477 56.2256L97.6053 56.168ZM114.055 54.5696C114.208 54.5696 114.323 54.5264 114.4 54.44C114.477 54.3536 114.515 54.2576 114.515 54.152V53.4176C114.515 53.312 114.477 53.216 114.4 53.1296C114.323 53.0432 114.208 53 114.055 53H109.389C109.226 53 109.106 53.0432 109.029 53.1296C108.962 53.216 108.928 53.312 108.928 53.4176V60.9488C108.928 61.0544 108.962 61.1504 109.029 61.2368C109.106 61.3232 109.226 61.3664 109.389 61.3664H114.055C114.208 61.3664 114.323 61.3232 114.4 61.2368C114.477 61.1504 114.515 61.0544 114.515 60.9488V60.2144C114.515 60.1088 114.477 60.0128 114.4 59.9264C114.323 59.84 114.208 59.7968 114.055 59.7968H110.858C110.752 59.7968 110.675 59.768 110.627 59.7104C110.589 59.6528 110.57 59.5856 110.57 59.5088V58.1696C110.57 58.0928 110.589 58.0256 110.627 57.968C110.675 57.9104 110.752 57.8816 110.858 57.8816H113.45C113.613 57.8816 113.733 57.8384 113.81 57.752C113.887 57.6656 113.925 57.5696 113.925 57.464V56.816C113.925 56.7104 113.887 56.6192 113.81 56.5424C113.733 56.456 113.613 56.4128 113.45 56.4128H110.858C110.752 56.4128 110.675 56.384 110.627 56.3264C110.589 56.2688 110.57 56.2016 110.57 56.1248V54.8576C110.57 54.7808 110.589 54.7136 110.627 54.656C110.675 54.5984 110.752 54.5696 110.858 54.5696H114.055ZM121.703 54.872C121.703 54.776 121.727 54.6944 121.775 54.6272C121.833 54.56 121.924 54.5216 122.049 54.512H122.725C123.215 54.512 123.594 54.5648 123.863 54.6704C124.132 54.776 124.266 55.04 124.266 55.4624C124.266 55.7216 124.175 55.9328 123.993 56.096C123.82 56.2496 123.556 56.3264 123.201 56.3264H122.049C121.924 56.3264 121.833 56.288 121.775 56.2112C121.727 56.1344 121.703 56.048 121.703 55.952V54.872ZM121.185 61.3664C121.377 61.3664 121.511 61.3136 121.588 61.208C121.665 61.0928 121.703 60.9776 121.703 60.8624V58.112C121.703 58.0352 121.722 57.9632 121.761 57.896C121.809 57.8288 121.885 57.7952 121.991 57.7952C122.097 57.7952 122.178 57.8048 122.236 57.824C122.303 57.8432 122.361 57.8912 122.409 57.968L124.295 61.1072C124.333 61.1744 124.391 61.2368 124.468 61.2944C124.545 61.3424 124.636 61.3664 124.741 61.3664H125.404C125.567 61.3664 125.701 61.3376 125.807 61.28C125.922 61.2128 125.98 61.112 125.98 60.9776C125.98 60.9104 125.965 60.848 125.937 60.7904C125.917 60.7328 125.893 60.68 125.865 60.632L124.41 58.1696C124.353 58.0832 124.324 57.9968 124.324 57.9104C124.324 57.824 124.348 57.7568 124.396 57.7088C124.453 57.6608 124.535 57.6128 124.641 57.5648C125.169 57.3152 125.538 57.0176 125.749 56.672C125.97 56.3264 126.081 55.9232 126.081 55.4624C126.081 54.5888 125.797 53.96 125.231 53.576C124.665 53.192 123.829 53 122.725 53H120.508C120.316 53.0096 120.181 53.0672 120.105 53.1728C120.028 53.2688 119.989 53.3744 119.989 53.4896V60.8624C119.989 60.9776 120.028 61.0928 120.105 61.208C120.191 61.3136 120.325 61.3664 120.508 61.3664H121.185ZM132.871 53.3312C132.842 53.2544 132.785 53.1824 132.698 53.1152C132.622 53.0384 132.516 53 132.382 53H132.022H131.921C131.844 53 131.762 53.0048 131.676 53.0144C131.59 53.0144 131.508 53.0288 131.431 53.0576C131.364 53.0864 131.306 53.1296 131.258 53.1872C131.21 53.2448 131.186 53.3264 131.186 53.432C131.186 53.4896 131.206 53.5664 131.244 53.6624C131.417 54.2096 131.609 54.752 131.82 55.2896C132.031 55.8176 132.233 56.3552 132.425 56.9024L133.793 60.6464C133.812 60.6752 133.822 60.7088 133.822 60.7472C133.831 60.776 133.846 60.8096 133.865 60.848C133.913 60.9824 133.975 61.1024 134.052 61.208C134.138 61.3136 134.263 61.3664 134.426 61.3664H135.103C135.238 61.3664 135.338 61.3328 135.406 61.2656C135.482 61.1984 135.54 61.1264 135.578 61.0496C135.674 60.8576 135.751 60.6704 135.809 60.488C135.876 60.296 135.948 60.104 136.025 59.912L136.975 57.5648C137.004 57.488 137.047 57.3776 137.105 57.2336C137.172 57.0896 137.244 56.9216 137.321 56.7296C137.398 56.528 137.479 56.3168 137.566 56.096C137.662 55.8656 137.758 55.6352 137.854 55.4048C137.95 55.1744 138.041 54.9488 138.127 54.728C138.214 54.5072 138.29 54.3104 138.358 54.1376C138.425 53.9552 138.478 53.8016 138.516 53.6768C138.554 53.5424 138.574 53.456 138.574 53.4176C138.574 53.2928 138.526 53.192 138.43 53.1152C138.334 53.0384 138.199 53 138.026 53H137.407C137.282 53 137.177 53.0336 137.09 53.1008C137.014 53.168 136.956 53.24 136.918 53.3168L136.039 55.5056C135.886 55.8896 135.732 56.2736 135.578 56.6576C135.434 57.032 135.281 57.4112 135.118 57.7952C135.089 57.8528 135.046 57.9392 134.988 58.0544C134.93 58.1696 134.863 58.2272 134.786 58.2272C134.71 58.2272 134.642 58.1696 134.585 58.0544C134.527 57.9296 134.489 57.8432 134.47 57.7952L132.871 53.3312ZM147.696 61.5536C148.291 61.5536 148.839 61.4336 149.338 61.1936C149.847 60.9536 150.279 60.632 150.634 60.2288C150.999 59.8256 151.282 59.36 151.483 58.832C151.685 58.304 151.786 57.7568 151.786 57.1904C151.786 56.624 151.685 56.0768 151.483 55.5488C151.282 55.0208 150.999 54.5552 150.634 54.152C150.279 53.7488 149.847 53.4272 149.338 53.1872C148.839 52.9376 148.291 52.8128 147.696 52.8128C147.101 52.8128 146.554 52.9376 146.055 53.1872C145.565 53.4272 145.138 53.7488 144.773 54.152C144.418 54.5552 144.139 55.0208 143.938 55.5488C143.736 56.0768 143.635 56.624 143.635 57.1904C143.635 57.7568 143.736 58.304 143.938 58.832C144.139 59.3504 144.418 59.8112 144.773 60.2144C145.138 60.6176 145.565 60.944 146.055 61.1936C146.554 61.4336 147.101 61.5536 147.696 61.5536ZM147.696 59.9984C147.274 59.9984 146.904 59.9072 146.587 59.7248C146.28 59.5328 146.026 59.2976 145.824 59.0192C145.623 58.7312 145.474 58.424 145.378 58.0976C145.282 57.7712 145.234 57.4688 145.234 57.1904C145.234 56.912 145.282 56.6096 145.378 56.2832C145.474 55.9568 145.623 55.6544 145.824 55.376C146.026 55.088 146.28 54.848 146.587 54.656C146.904 54.464 147.274 54.368 147.696 54.368C148.128 54.368 148.498 54.464 148.805 54.656C149.122 54.848 149.381 55.088 149.583 55.376C149.784 55.6544 149.933 55.9568 150.029 56.2832C150.125 56.6096 150.173 56.912 150.173 57.1904C150.173 57.4688 150.125 57.7712 150.029 58.0976C149.933 58.424 149.784 58.7312 149.583 59.0192C149.381 59.2976 149.122 59.5328 148.805 59.7248C148.498 59.9072 148.128 59.9984 147.696 59.9984ZM160.566 60.0128C160.297 60.0128 160.066 59.96 159.874 59.8544C159.682 59.7392 159.519 59.6 159.385 59.4368C159.26 59.264 159.164 59.0816 159.097 58.8896C159.039 58.688 159.01 58.496 159.01 58.3136V53.504C159.01 53.3216 158.958 53.2016 158.852 53.144C158.746 53.0768 158.612 53.0336 158.449 53.0144H158.118C157.897 53.0144 157.719 53.048 157.585 53.1152C157.46 53.1824 157.398 53.312 157.398 53.504V58.1552C157.398 58.5296 157.45 58.9184 157.556 59.3216C157.662 59.7248 157.834 60.0944 158.074 60.4304C158.324 60.7568 158.65 61.0304 159.054 61.2512C159.457 61.4624 159.961 61.568 160.566 61.568C161.17 61.568 161.679 61.4624 162.092 61.2512C162.505 61.04 162.831 60.7712 163.071 60.4448C163.321 60.1088 163.498 59.7392 163.604 59.336C163.71 58.9328 163.762 58.5392 163.762 58.1552V53.504C163.762 53.3216 163.71 53.2016 163.604 53.144C163.498 53.0768 163.364 53.0336 163.201 53.0144H162.87C162.649 53.0144 162.471 53.048 162.337 53.1152C162.212 53.1824 162.15 53.312 162.15 53.504C162.15 54.1664 162.154 54.8192 162.164 55.4624C162.174 56.1056 162.178 56.7584 162.178 57.4208C162.178 57.5648 162.174 57.7136 162.164 57.8672C162.164 58.0112 162.159 58.1552 162.15 58.2992C162.14 58.4816 162.102 58.6784 162.034 58.8896C161.977 59.0912 161.886 59.2736 161.761 59.4368C161.636 59.6 161.473 59.7392 161.271 59.8544C161.079 59.96 160.844 60.0128 160.566 60.0128ZM170.497 59.3792C170.439 59.3408 170.382 59.312 170.324 59.2928C170.266 59.264 170.209 59.2496 170.151 59.2496C170.026 59.2496 169.897 59.3024 169.762 59.408C169.638 59.5136 169.537 59.6096 169.46 59.696C169.383 59.7536 169.311 59.8256 169.244 59.912C169.177 59.9984 169.143 60.0944 169.143 60.2C169.143 60.3152 169.196 60.4256 169.302 60.5312C169.446 60.6656 169.618 60.7952 169.82 60.92C170.022 61.0448 170.238 61.1552 170.468 61.2512C170.708 61.3376 170.953 61.4096 171.202 61.4672C171.452 61.5248 171.692 61.5536 171.922 61.5536C172.402 61.5536 172.825 61.4816 173.19 61.3376C173.554 61.1936 173.862 61.0064 174.111 60.776C174.37 60.536 174.562 60.2624 174.687 59.9552C174.822 59.6384 174.889 59.312 174.889 58.976C174.889 58.6112 174.831 58.304 174.716 58.0544C174.601 57.7952 174.447 57.5792 174.255 57.4064C174.073 57.224 173.862 57.0752 173.622 56.96C173.382 56.8352 173.137 56.7296 172.887 56.6432C172.753 56.5952 172.623 56.5568 172.498 56.528C172.383 56.4896 172.268 56.4464 172.153 56.3984C172.018 56.3504 171.879 56.2976 171.735 56.24C171.591 56.1728 171.457 56.096 171.332 56.0096C171.207 55.9232 171.106 55.8224 171.03 55.7072C170.953 55.5824 170.914 55.4336 170.914 55.2608C170.914 55.04 171.025 54.8384 171.246 54.656C171.466 54.4736 171.726 54.3824 172.023 54.3824C172.215 54.3824 172.393 54.416 172.556 54.4832C172.719 54.5408 172.868 54.608 173.002 54.6848C173.07 54.7232 173.132 54.7616 173.19 54.8C173.247 54.8288 173.305 54.8576 173.362 54.8864C173.478 54.9536 173.578 54.9872 173.665 54.9872C173.79 54.9872 173.914 54.9392 174.039 54.8432C174.164 54.7376 174.27 54.6416 174.356 54.5552C174.385 54.5168 174.414 54.4832 174.442 54.4544C174.471 54.4256 174.495 54.4016 174.514 54.3824C174.62 54.2768 174.673 54.1616 174.673 54.0368C174.673 53.96 174.654 53.8976 174.615 53.8496C174.586 53.8016 174.543 53.7536 174.486 53.7056C174.351 53.5808 174.188 53.4656 173.996 53.36C173.804 53.2544 173.598 53.1632 173.377 53.0864C173.166 53 172.945 52.9328 172.714 52.8848C172.484 52.8368 172.263 52.8128 172.052 52.8128C171.601 52.8128 171.198 52.8848 170.842 53.0288C170.487 53.1728 170.185 53.3648 169.935 53.6048C169.695 53.8448 169.508 54.1184 169.374 54.4256C169.249 54.7232 169.186 55.0304 169.186 55.3472C169.186 55.7888 169.263 56.1584 169.417 56.456C169.57 56.744 169.772 56.984 170.022 57.176C170.271 57.368 170.559 57.5312 170.886 57.6656C171.222 57.7904 171.562 57.9056 171.908 58.0112C172.023 58.0592 172.134 58.1024 172.239 58.1408C172.345 58.1696 172.446 58.208 172.542 58.256C172.724 58.352 172.868 58.4624 172.974 58.5872C173.079 58.712 173.132 58.8704 173.132 59.0624C173.132 59.3408 173.012 59.5664 172.772 59.7392C172.542 59.912 172.244 59.9984 171.879 59.9984C171.687 59.9984 171.51 59.96 171.346 59.8832C171.183 59.8064 171.03 59.72 170.886 59.624C170.809 59.576 170.737 59.5328 170.67 59.4944C170.612 59.4464 170.554 59.408 170.497 59.3792ZM188.933 59.3792C188.875 59.3408 188.817 59.312 188.76 59.2928C188.702 59.264 188.645 59.2496 188.587 59.2496C188.462 59.2496 188.333 59.3024 188.198 59.408C188.073 59.5136 187.973 59.6096 187.896 59.696C187.819 59.7536 187.747 59.8256 187.68 59.912C187.613 59.9984 187.579 60.0944 187.579 60.2C187.579 60.3152 187.632 60.4256 187.737 60.5312C187.881 60.6656 188.054 60.7952 188.256 60.92C188.457 61.0448 188.673 61.1552 188.904 61.2512C189.144 61.3376 189.389 61.4096 189.638 61.4672C189.888 61.5248 190.128 61.5536 190.358 61.5536C190.838 61.5536 191.261 61.4816 191.625 61.3376C191.99 61.1936 192.297 61.0064 192.547 60.776C192.806 60.536 192.998 60.2624 193.123 59.9552C193.257 59.6384 193.325 59.312 193.325 58.976C193.325 58.6112 193.267 58.304 193.152 58.0544C193.037 57.7952 192.883 57.5792 192.691 57.4064C192.509 57.224 192.297 57.0752 192.057 56.96C191.817 56.8352 191.573 56.7296 191.323 56.6432C191.189 56.5952 191.059 56.5568 190.934 56.528C190.819 56.4896 190.704 56.4464 190.589 56.3984C190.454 56.3504 190.315 56.2976 190.171 56.24C190.027 56.1728 189.893 56.096 189.768 56.0096C189.643 55.9232 189.542 55.8224 189.465 55.7072C189.389 55.5824 189.35 55.4336 189.35 55.2608C189.35 55.04 189.461 54.8384 189.681 54.656C189.902 54.4736 190.161 54.3824 190.459 54.3824C190.651 54.3824 190.829 54.416 190.992 54.4832C191.155 54.5408 191.304 54.608 191.438 54.6848C191.505 54.7232 191.568 54.7616 191.625 54.8C191.683 54.8288 191.741 54.8576 191.798 54.8864C191.913 54.9536 192.014 54.9872 192.101 54.9872C192.225 54.9872 192.35 54.9392 192.475 54.8432C192.6 54.7376 192.705 54.6416 192.792 54.5552C192.821 54.5168 192.849 54.4832 192.878 54.4544C192.907 54.4256 192.931 54.4016 192.95 54.3824C193.056 54.2768 193.109 54.1616 193.109 54.0368C193.109 53.96 193.089 53.8976 193.051 53.8496C193.022 53.8016 192.979 53.7536 192.921 53.7056C192.787 53.5808 192.624 53.4656 192.432 53.36C192.24 53.2544 192.033 53.1632 191.813 53.0864C191.601 53 191.381 52.9328 191.15 52.8848C190.92 52.8368 190.699 52.8128 190.488 52.8128C190.037 52.8128 189.633 52.8848 189.278 53.0288C188.923 53.1728 188.621 53.3648 188.371 53.6048C188.131 53.8448 187.944 54.1184 187.809 54.4256C187.685 54.7232 187.622 55.0304 187.622 55.3472C187.622 55.7888 187.699 56.1584 187.853 56.456C188.006 56.744 188.208 56.984 188.457 57.176C188.707 57.368 188.995 57.5312 189.321 57.6656C189.657 57.7904 189.998 57.9056 190.344 58.0112C190.459 58.0592 190.569 58.1024 190.675 58.1408C190.781 58.1696 190.881 58.208 190.977 58.256C191.16 58.352 191.304 58.4624 191.409 58.5872C191.515 58.712 191.568 58.8704 191.568 59.0624C191.568 59.3408 191.448 59.5664 191.208 59.7392C190.977 59.912 190.68 59.9984 190.315 59.9984C190.123 59.9984 189.945 59.96 189.782 59.8832C189.619 59.8064 189.465 59.72 189.321 59.624C189.245 59.576 189.173 59.5328 189.105 59.4944C189.048 59.4464 188.99 59.408 188.933 59.3792ZM198.941 53C198.778 53 198.644 53.0336 198.538 53.1008C198.433 53.168 198.38 53.2688 198.38 53.4032C198.38 53.5088 198.413 53.6192 198.481 53.7344L200.741 57.7664C200.77 57.8048 200.785 57.8624 200.785 57.9392V60.8768C200.785 61.0688 200.842 61.1984 200.957 61.2656C201.082 61.3232 201.226 61.3568 201.389 61.3664H201.605H201.735C201.956 61.3664 202.129 61.3328 202.253 61.2656C202.388 61.1984 202.455 61.0688 202.455 60.8768V57.9392C202.455 57.8816 202.469 57.824 202.498 57.7664L204.773 53.7344C204.802 53.6864 204.826 53.6336 204.845 53.576C204.874 53.5184 204.889 53.4608 204.889 53.4032C204.889 53.2688 204.831 53.168 204.716 53.1008C204.61 53.0336 204.481 53 204.327 53H203.621C203.516 53 203.425 53.0288 203.348 53.0864C203.271 53.1344 203.213 53.1968 203.175 53.2736C202.925 53.7056 202.676 54.1424 202.426 54.584C202.177 55.016 201.874 55.4528 201.519 55.8944L200.079 53.2736C200.041 53.1968 199.978 53.1344 199.892 53.0864C199.815 53.0288 199.724 53 199.618 53H198.941ZM211.306 59.3792C211.249 59.3408 211.191 59.312 211.133 59.2928C211.076 59.264 211.018 59.2496 210.961 59.2496C210.836 59.2496 210.706 59.3024 210.572 59.408C210.447 59.5136 210.346 59.6096 210.269 59.696C210.193 59.7536 210.121 59.8256 210.053 59.912C209.986 59.9984 209.953 60.0944 209.953 60.2C209.953 60.3152 210.005 60.4256 210.111 60.5312C210.255 60.6656 210.428 60.7952 210.629 60.92C210.831 61.0448 211.047 61.1552 211.277 61.2512C211.517 61.3376 211.762 61.4096 212.012 61.4672C212.261 61.5248 212.501 61.5536 212.732 61.5536C213.212 61.5536 213.634 61.4816 213.999 61.3376C214.364 61.1936 214.671 61.0064 214.921 60.776C215.18 60.536 215.372 60.2624 215.497 59.9552C215.631 59.6384 215.698 59.312 215.698 58.976C215.698 58.6112 215.641 58.304 215.525 58.0544C215.41 57.7952 215.257 57.5792 215.065 57.4064C214.882 57.224 214.671 57.0752 214.431 56.96C214.191 56.8352 213.946 56.7296 213.697 56.6432C213.562 56.5952 213.433 56.5568 213.308 56.528C213.193 56.4896 213.077 56.4464 212.962 56.3984C212.828 56.3504 212.689 56.2976 212.545 56.24C212.401 56.1728 212.266 56.096 212.141 56.0096C212.017 55.9232 211.916 55.8224 211.839 55.7072C211.762 55.5824 211.724 55.4336 211.724 55.2608C211.724 55.04 211.834 54.8384 212.055 54.656C212.276 54.4736 212.535 54.3824 212.833 54.3824C213.025 54.3824 213.202 54.416 213.365 54.4832C213.529 54.5408 213.677 54.608 213.812 54.6848C213.879 54.7232 213.941 54.7616 213.999 54.8C214.057 54.8288 214.114 54.8576 214.172 54.8864C214.287 54.9536 214.388 54.9872 214.474 54.9872C214.599 54.9872 214.724 54.9392 214.849 54.8432C214.973 54.7376 215.079 54.6416 215.165 54.5552C215.194 54.5168 215.223 54.4832 215.252 54.4544C215.281 54.4256 215.305 54.4016 215.324 54.3824C215.429 54.2768 215.482 54.1616 215.482 54.0368C215.482 53.96 215.463 53.8976 215.425 53.8496C215.396 53.8016 215.353 53.7536 215.295 53.7056C215.161 53.5808 214.997 53.4656 214.805 53.36C214.613 53.2544 214.407 53.1632 214.186 53.0864C213.975 53 213.754 52.9328 213.524 52.8848C213.293 52.8368 213.073 52.8128 212.861 52.8128C212.41 52.8128 212.007 52.8848 211.652 53.0288C211.297 53.1728 210.994 53.3648 210.745 53.6048C210.505 53.8448 210.317 54.1184 210.183 54.4256C210.058 54.7232 209.996 55.0304 209.996 55.3472C209.996 55.7888 210.073 56.1584 210.226 56.456C210.38 56.744 210.581 56.984 210.831 57.176C211.081 57.368 211.369 57.5312 211.695 57.6656C212.031 57.7904 212.372 57.9056 212.717 58.0112C212.833 58.0592 212.943 58.1024 213.049 58.1408C213.154 58.1696 213.255 58.208 213.351 58.256C213.533 58.352 213.677 58.4624 213.783 58.5872C213.889 58.712 213.941 58.8704 213.941 59.0624C213.941 59.3408 213.821 59.5664 213.581 59.7392C213.351 59.912 213.053 59.9984 212.689 59.9984C212.497 59.9984 212.319 59.96 212.156 59.8832C211.993 59.8064 211.839 59.72 211.695 59.624C211.618 59.576 211.546 59.5328 211.479 59.4944C211.421 59.4464 211.364 59.408 211.306 59.3792ZM221.027 53C220.864 53 220.744 53.0432 220.667 53.1296C220.6 53.216 220.566 53.312 220.566 53.4176V54.1376C220.566 54.2432 220.6 54.3392 220.667 54.4256C220.744 54.5024 220.864 54.5408 221.027 54.5408H222.582C222.678 54.5408 222.75 54.5696 222.798 54.6272C222.846 54.6848 222.87 54.752 222.87 54.8288V60.9488C222.87 61.0544 222.904 61.1504 222.971 61.2368C223.048 61.3232 223.168 61.3664 223.331 61.3664H224.036C224.2 61.3664 224.315 61.3232 224.382 61.2368C224.459 61.1504 224.497 61.0544 224.497 60.9488V54.8288C224.497 54.752 224.521 54.6848 224.569 54.6272C224.617 54.5696 224.694 54.5408 224.8 54.5408H226.34C226.494 54.5408 226.609 54.5024 226.686 54.4256C226.763 54.3392 226.801 54.2432 226.801 54.1376V53.4176C226.801 53.312 226.763 53.216 226.686 53.1296C226.609 53.0432 226.494 53 226.34 53H221.027ZM237.397 54.5696C237.55 54.5696 237.666 54.5264 237.742 54.44C237.819 54.3536 237.858 54.2576 237.858 54.152V53.4176C237.858 53.312 237.819 53.216 237.742 53.1296C237.666 53.0432 237.55 53 237.397 53H232.731C232.568 53 232.448 53.0432 232.371 53.1296C232.304 53.216 232.27 53.312 232.27 53.4176V60.9488C232.27 61.0544 232.304 61.1504 232.371 61.2368C232.448 61.3232 232.568 61.3664 232.731 61.3664H237.397C237.55 61.3664 237.666 61.3232 237.742 61.2368C237.819 61.1504 237.858 61.0544 237.858 60.9488V60.2144C237.858 60.1088 237.819 60.0128 237.742 59.9264C237.666 59.84 237.55 59.7968 237.397 59.7968H234.2C234.094 59.7968 234.018 59.768 233.97 59.7104C233.931 59.6528 233.912 59.5856 233.912 59.5088V58.1696C233.912 58.0928 233.931 58.0256 233.97 57.968C234.018 57.9104 234.094 57.8816 234.2 57.8816H236.792C236.955 57.8816 237.075 57.8384 237.152 57.752C237.229 57.6656 237.267 57.5696 237.267 57.464V56.816C237.267 56.7104 237.229 56.6192 237.152 56.5424C237.075 56.456 236.955 56.4128 236.792 56.4128H234.2C234.094 56.4128 234.018 56.384 233.97 56.3264C233.931 56.2688 233.912 56.2016 233.912 56.1248V54.8576C233.912 54.7808 233.931 54.7136 233.97 54.656C234.018 54.5984 234.094 54.5696 234.2 54.5696H237.397ZM245.376 56.8448C245.453 56.9312 245.516 57.0272 245.564 57.1328C245.612 57.2288 245.66 57.3248 245.708 57.4208L247.032 60.4016C247.09 60.536 247.176 60.6128 247.292 60.632C247.407 60.6512 247.527 60.6608 247.652 60.6608C247.786 60.6608 247.911 60.6512 248.026 60.632C248.141 60.6128 248.232 60.536 248.3 60.4016C248.54 59.8928 248.765 59.3888 248.976 58.8896C249.188 58.3808 249.408 57.872 249.639 57.3632C249.716 57.1616 249.816 56.984 249.941 56.8304C249.951 56.8208 249.96 56.8112 249.97 56.8016C249.98 56.792 249.999 56.7872 250.028 56.7872C250.114 56.864 250.157 56.9504 250.157 57.0464C250.176 57.1328 250.186 57.2192 250.186 57.3056C250.186 57.3824 250.186 57.4352 250.186 57.464V60.9488C250.186 61.0544 250.224 61.1504 250.301 61.2368C250.378 61.3232 250.493 61.3664 250.647 61.3664H251.352C251.516 61.3664 251.636 61.3232 251.712 61.2368C251.789 61.1504 251.828 61.0544 251.828 60.9488V53.4176C251.828 53.312 251.789 53.216 251.712 53.1296C251.636 53.0432 251.516 53 251.352 53H250.071C249.965 53 249.874 53.0288 249.797 53.0864C249.72 53.1344 249.668 53.1968 249.639 53.2736L247.94 57.1616C247.92 57.2096 247.882 57.2768 247.824 57.3632C247.776 57.44 247.724 57.4784 247.666 57.4784C247.608 57.4784 247.551 57.44 247.493 57.3632C247.445 57.2768 247.412 57.2096 247.392 57.1616L245.708 53.2736C245.669 53.1968 245.612 53.1344 245.535 53.0864C245.468 53.0288 245.381 53 245.276 53H243.98C243.816 53 243.696 53.0432 243.62 53.1296C243.552 53.216 243.519 53.312 243.519 53.4176V60.9488C243.519 61.0544 243.552 61.1504 243.62 61.2368C243.696 61.3232 243.816 61.3664 243.98 61.3664H244.671C244.834 61.3664 244.954 61.3232 245.031 61.2368C245.108 61.1504 245.146 61.0544 245.146 60.9488V57.536C245.146 57.5168 245.146 57.464 245.146 57.3776C245.146 57.2912 245.151 57.2 245.16 57.104C245.17 57.056 245.18 57.0128 245.189 56.9744C245.199 56.9264 245.223 56.864 245.261 56.7872L245.376 56.8448Z" fill="#E2DDED"/>
    <g filter="url(#filter0_d_420_34495)">
        <path opacity="0.6" d="M136.203 20C134.047 20 131.697 21.0917 129.213 23.242C128.034 24.2609 127.016 25.3526 126.253 26.2259C126.253 26.2259 126.253 26.2259 126.26 26.2325V26.2259C126.26 26.2259 127.465 27.5227 128.797 28.9121C129.514 28.0719 130.545 26.9272 131.73 25.8951C133.94 23.983 135.38 23.5794 136.203 23.5794C139.304 23.5794 141.822 26.0076 141.822 28.9915C141.822 31.9556 139.297 34.3838 136.203 34.4036C136.063 34.4036 135.882 34.3838 135.654 34.3375C136.558 34.7212 137.529 34.9991 138.454 34.9991C144.132 34.9991 145.243 31.3403 145.317 31.0756C145.485 30.4074 145.572 29.7061 145.572 28.9849C145.572 24.0359 141.366 20 136.203 20Z" fill="#EFEDF8"/>
        <path opacity="0.6" d="M116.368 38.0004C118.524 38.0004 120.875 36.9086 123.359 34.7584C124.538 33.7395 125.555 32.6478 126.319 31.7744C126.319 31.7744 126.319 31.7744 126.312 31.7678V31.7744C126.312 31.7744 125.107 30.4776 123.774 29.0882C123.058 29.9285 122.026 31.0731 120.841 32.1052C118.631 34.0173 117.192 34.4209 116.368 34.4209C113.268 34.4143 110.75 31.9861 110.75 29.0022C110.75 26.0381 113.274 23.6099 116.368 23.5901C116.509 23.5901 116.69 23.6099 116.917 23.6563C116.013 23.2725 115.042 22.9946 114.118 22.9946C108.44 22.9946 107.335 26.6534 107.254 26.9115C107.087 27.5863 107 28.281 107 29.0022C107 33.9644 111.205 38.0004 116.368 38.0004Z" fill="#EFEDF8"/>
        <path d="M138.44 34.9197C135.533 34.8469 132.513 32.5841 131.897 32.0218C130.304 30.5662 126.627 26.6295 126.339 26.3185C123.647 23.3346 119.998 20 116.369 20H116.362H116.355C111.949 20.0198 108.246 22.9707 107.255 26.9074C107.329 26.6494 108.782 22.9178 114.112 23.0501C117.018 23.1229 120.051 25.4187 120.674 25.9811C122.268 27.4367 125.944 31.3734 126.232 31.6843C128.924 34.6617 132.574 37.9963 136.203 37.9963H136.21H136.216C140.622 37.9765 144.332 35.0256 145.317 31.0889C145.236 31.3469 143.776 35.0454 138.44 34.9197Z" fill="#EFEDF8"/>
    </g>
    <defs>
        <filter id="filter0_d_420_34495" x="85.1433" y="-1.85671" width="82.2847" height="61.7139" filterUnits="userSpaceOnUse" color-interpolation-filters="sRGB">
            <feFlood flood-opacity="0" result="BackgroundImageFix"/>
            <feColorMatrix in="SourceAlpha" type="matrix" values="0 0 0 0 0 0 0 0 0 0 0 0 0 0 0 0 0 0 127 0" result="hardAlpha"/>
            <feOffset/>
            <feGaussianBlur stdDeviation="10.9284"/>
            <feComposite in2="hardAlpha" operator="out"/>
            <feColorMatrix type="matrix" values="0 0 0 0 1 0 0 0 0 1 0 0 0 0 1 0 0 0 0.65 0"/>
            <feBlend mode="normal" in2="BackgroundImageFix" result="effect1_dropShadow_420_34495"/>
            <feBlend mode="normal" in="SourceGraphic" in2="effect1_dropShadow_420_34495" result="shape"/>
        </filter>
    </defs>
</svg>
