<svg width="20" height="20" viewBox="0 0 20 20" fill="none" xmlns="http://www.w3.org/2000/svg">
  <path d="M8.84753 15.0655C8.78132 15.1387 8.71962 15.2158 8.66277 15.2965C8.6045 15.3823 8.55791 15.4755 8.5242 15.5736C8.47981 15.6609 8.44868 15.7543 8.43183 15.8507C8.42427 15.9532 8.42427 16.0562 8.43183 16.1587C8.42662 16.3606 8.46881 16.561 8.555 16.7437C8.62415 16.9348 8.73447 17.1083 8.87815 17.252C9.02183 17.3957 9.19535 17.506 9.38641 17.5751C9.57071 17.6566 9.76999 17.6987 9.97148 17.6987C10.173 17.6987 10.3723 17.6566 10.5566 17.5751C10.7476 17.506 10.9211 17.3957 11.0648 17.252C11.2085 17.1083 11.3188 16.9348 11.388 16.7437C11.4563 16.5565 11.4877 16.3578 11.4803 16.1587C11.4815 15.956 11.4427 15.7552 11.3661 15.5676C11.2894 15.38 11.1765 15.2094 11.0338 15.0655C10.8907 14.9212 10.7204 14.8067 10.5328 14.7285C10.3452 14.6503 10.1439 14.6101 9.94069 14.6101C9.73744 14.6101 9.53619 14.6503 9.34857 14.7285C9.16095 14.8067 8.99066 14.9212 8.84753 15.0655ZM9.94069 2.30176C9.12939 2.30124 8.33226 2.51442 7.62952 2.91984C6.92679 3.32527 6.34323 3.90864 5.93758 4.61124C5.82618 4.78648 5.75138 4.98245 5.71768 5.18735C5.68398 5.39224 5.69207 5.60184 5.74147 5.80353C5.79088 6.00522 5.88057 6.19483 6.00515 6.36096C6.12973 6.52709 6.28663 6.6663 6.46641 6.77022C6.64619 6.87414 6.84513 6.94061 7.05127 6.96565C7.2574 6.99069 7.46647 6.97377 7.6659 6.91592C7.86533 6.85806 8.051 6.76046 8.21173 6.62899C8.37246 6.49752 8.50494 6.3349 8.60119 6.1509C8.73684 5.91594 8.93217 5.721 9.16739 5.58581C9.40262 5.45063 9.66939 5.37999 9.94069 5.38107C10.349 5.38107 10.7406 5.54329 11.0294 5.83203C11.3181 6.12077 11.4803 6.51239 11.4803 6.92073C11.4803 7.32907 11.3181 7.72069 11.0294 8.00943C10.7406 8.29817 10.349 8.46038 9.94069 8.46038C9.53235 8.46038 9.14073 8.6226 8.85199 8.91134C8.56325 9.20008 8.40103 9.5917 8.40103 10V11.5397C8.40103 11.948 8.56325 12.3397 8.85199 12.6284C9.14073 12.9171 9.53235 13.0794 9.94069 13.0794C10.349 13.0794 10.7406 12.9171 11.0294 12.6284C11.3181 12.3397 11.4803 11.948 11.4803 11.5397V11.2626C12.4986 10.8931 13.3547 10.1774 13.8988 9.24079C14.4429 8.30412 14.6405 7.20601 14.4571 6.13841C14.2737 5.07081 13.7209 4.10164 12.8953 3.40033C12.0697 2.69901 11.0239 2.31016 9.94069 2.30176Z" fill="#3D4D99"/>
</svg>
