<?xml version="1.0" standalone="no"?>
<!DOCTYPE svg PUBLIC "-//W3C//DTD SVG 20010904//EN"
 "http://www.w3.org/TR/2001/REC-SVG-20010904/DTD/svg10.dtd">
<svg version="1.0" xmlns="http://www.w3.org/2000/svg"
 width="512.000000pt" height="512.000000pt" viewBox="0 0 512.000000 512.000000"
 preserveAspectRatio="xMidYMid meet">
<metadata>
Created by potrace 1.14, written by Peter Selinger 2001-2017
</metadata>
<g transform="translate(0.000000,512.000000) scale(0.100000,-0.100000)"
fill="#000000" stroke="none">
<path d="M2320 5110 c-491 -47 -981 -247 -1365 -557 -129 -104 -340 -321 -433
-445 -274 -365 -443 -782 -504 -1238 -16 -123 -16 -509 0 -625 65 -459 233
-873 501 -1230 92 -122 304 -341 426 -440 368 -299 822 -493 1305 -557 123
-16 509 -16 625 0 459 65 873 233 1230 501 122 92 341 304 440 426 299 368
493 822 557 1305 16 123 16 509 0 625 -65 459 -233 873 -501 1230 -92 122
-304 341 -426 440 -365 297 -826 494 -1295 555 -115 15 -443 21 -560 10z
m-325 -1925 c149 -39 286 -128 466 -303 l126 -122 94 96 c162 165 325 275 474
320 121 37 315 15 443 -50 268 -136 407 -431 338 -720 -56 -233 -263 -424
-513 -472 -147 -28 -251 -12 -392 61 -115 60 -204 128 -335 257 l-110 106 -90
-92 c-161 -164 -300 -261 -449 -314 -58 -20 -91 -25 -167 -25 -116 0 -196 19
-310 74 -164 80 -298 250 -335 425 -47 220 23 444 184 592 157 145 395 213
576 167z"/>
<path d="M1802 2940 c-120 -25 -233 -114 -288 -225 -26 -54 -29 -70 -29 -155
0 -82 4 -103 27 -152 70 -150 252 -256 401 -234 58 9 155 58 234 119 58 44
239 223 254 250 11 20 -214 240 -306 300 -147 94 -208 114 -293 97z"/>
<path d="M3220 2936 c-130 -48 -284 -167 -412 -319 l-41 -49 114 -115 c126
-127 199 -183 304 -235 93 -46 117 -51 184 -37 163 33 295 167 321 322 31 191
-98 380 -295 431 -71 19 -127 19 -175 2z"/>
</g>
</svg>
