<svg width="120" height="60" viewBox="0 0 120 60" fill="none" xmlns="http://www.w3.org/2000/svg">
<g clip-path="url(#clip0)">
<path d="M5.7752 48.6067H2.81351C2.31919 48.6067 2 48.9212 2 49.4076V58.8919C2 59.3783 2.31919 59.6914 2.81351 59.6914H5.7752C9.18178 59.6914 11.5602 57.4121 11.5602 54.1491C11.5602 50.886 9.18178 48.6067 5.7752 48.6067ZM9.38092 54.1491C9.38092 56.3355 7.88524 57.8638 5.74413 57.8638H4.14818V50.4343H5.74413C7.88524 50.4343 9.38092 51.9626 9.38092 54.1491Z" fill="white"/>
<path d="M27.9815 48.6047H22.1895C21.6938 48.6047 21.3732 48.9193 21.3732 49.4056V58.89C21.3732 59.3763 21.6938 59.6895 22.1895 59.6895H22.7135C23.2092 59.6895 23.5298 59.375 23.5298 58.89V55.1586H27.3036C27.8008 55.1586 28.1355 54.8316 28.1355 54.3439V54.1471C28.1355 53.6608 27.8092 53.3476 27.3036 53.3476H23.5298V50.4323H27.9815C28.4773 50.4323 28.7979 50.1178 28.7979 49.6315V49.4056C28.7979 48.9193 28.4773 48.6047 27.9815 48.6047Z" fill="white"/>
<path d="M41.646 48.6047H41.122C40.6263 48.6047 40.3057 48.9193 40.3057 49.4056V58.89C40.3057 59.3763 40.6263 59.6895 41.122 59.6895H41.646C42.1417 59.6895 42.4623 59.375 42.4623 58.89V49.4056C42.4623 48.9193 42.1417 48.6047 41.646 48.6047Z" fill="white"/>
<path d="M62.3029 48.6047H61.7789C61.2832 48.6047 60.9626 48.9193 60.9626 49.4056V55.7239L55.9191 49.0398C55.6917 48.7433 55.405 48.6047 55.0166 48.6047H54.785C54.2892 48.6047 53.9686 48.9193 53.9686 49.4056V58.89C53.9686 59.3763 54.2892 59.6895 54.785 59.6895H55.3089C55.8047 59.6895 56.1253 59.375 56.1253 58.89V52.5412L61.1843 59.2544C61.4103 59.5509 61.6984 59.6895 62.0868 59.6895H62.3029C62.8085 59.6895 63.1348 59.375 63.1348 58.89V49.4056C63.1348 48.9193 62.8085 48.6047 62.3029 48.6047Z" fill="white"/>
<path d="M75.9828 48.6047H75.4589C74.9631 48.6047 74.6425 48.9193 74.6425 49.4056V58.89C74.6425 59.3763 74.9631 59.6895 75.4589 59.6895H75.9828C76.4786 59.6895 76.7992 59.375 76.7992 58.89V49.4056C76.7992 48.9193 76.48 48.6047 75.9828 48.6047Z" fill="white"/>
<path d="M96.7486 48.6047H89.1234C88.6347 48.6047 88.3071 48.9262 88.3071 49.4056V49.6315C88.3071 50.1109 88.6347 50.4323 89.1234 50.4323H91.8647V58.89C91.8647 59.3763 92.1853 59.6895 92.6811 59.6895H93.1895C93.6852 59.6895 94.0059 59.375 94.0059 58.89V50.4323H96.7472C97.2429 50.4323 97.5635 50.1178 97.5635 49.6315V49.4056C97.5649 48.9193 97.2443 48.6047 96.7486 48.6047Z" fill="white"/>
<path d="M117.182 48.9329C117.069 48.7237 116.825 48.6045 116.509 48.6045H115.849C115.44 48.6045 115.146 48.7639 114.954 49.0867L112.306 53.2393L109.679 49.0978C109.491 48.7653 109.2 48.6031 108.792 48.6031H108.117C107.802 48.6031 107.556 48.7237 107.443 48.9315C107.377 49.0549 107.302 49.314 107.546 49.6659L111.246 55.1584V58.887C111.246 59.3734 111.566 59.6865 112.06 59.6865H112.567C113.07 59.6865 113.396 59.372 113.396 58.887V55.1584L117.079 49.6687C117.324 49.3167 117.249 49.0562 117.182 48.9329Z" fill="white"/>
<path d="M100.299 18.5315C100.299 8.14237 91.4368 -0.30835 80.542 -0.30835C75.9999 -0.30835 71.0412 1.97511 65.8014 6.47966C63.3312 8.60378 59.5969 12.694 59.5644 12.7342C53.8995 6.54479 46.2799 -0.29865 38.7055 -0.29865H38.6956H38.6858C29.3869 -0.252926 21.571 5.92404 19.492 14.1683C19.1375 15.5733 18.9496 17.0365 18.9496 18.5412C18.9482 28.929 27.8107 37.3797 38.7055 37.3797C43.2476 37.3797 48.2064 35.0963 53.4462 30.5917C55.9234 28.4621 58.0702 26.1855 59.6831 24.3552C65.3466 30.5432 72.9662 37.3797 80.5364 37.3797H80.5462H80.5561C89.8197 37.334 97.6088 31.2042 99.7245 23.007C99.7386 22.9627 99.7499 22.9253 99.757 22.9031C100.11 21.4995 100.299 20.0349 100.299 18.5315ZM60.4217 13.4561C60.4556 13.4201 64.139 9.38248 66.5471 7.3124C71.5736 2.99074 76.2824 0.800124 80.542 0.800124C90.8126 0.800124 99.1694 8.75481 99.1694 18.5315C99.1694 19.9074 98.9999 21.2806 98.6652 22.6163C98.4138 23.4545 96.1258 29.9169 85.4979 30.0029C90.2024 28.1171 93.52 23.6762 93.52 18.5315C93.52 11.6742 87.6984 6.09447 80.5434 6.09447C77.7427 6.09447 74.3192 7.81676 70.3675 11.2142C68.3563 12.9434 66.3155 15.0191 64.1334 17.5547C62.5713 15.9252 61.166 14.4385 60.3384 13.5614L60.3836 13.5074C60.3949 13.4894 60.409 13.4727 60.4217 13.4561ZM38.714 7.21264C39.0092 7.21264 39.6772 7.27084 40.1489 7.37198C44.0555 8.92246 46.9084 11.4207 47.7883 12.2188C51.1469 15.2657 54.3289 18.7144 54.3289 18.7144C52.8205 20.4714 50.6413 22.8712 48.1372 25.0244C43.4793 29.0288 40.4371 29.8685 38.7055 29.8685C32.1734 29.8685 26.8588 24.7861 26.8588 18.5399C26.8588 12.3296 32.1763 7.25005 38.714 7.21264ZM58.8244 23.6333C56.7482 25.9888 54.6876 28.0492 52.7005 29.7576C47.6739 34.0793 42.9652 36.2699 38.7055 36.2699C28.435 36.2713 20.0781 28.3166 20.0781 18.5399C20.0781 17.164 20.2476 15.7908 20.5823 14.4551C20.8337 13.6168 23.1217 7.15445 33.7496 7.06854C29.0451 8.95433 25.7275 13.3952 25.7275 18.5399C25.7275 25.3971 31.5492 30.9769 38.7041 30.9769C41.5048 30.9769 44.9283 29.2546 48.8801 25.8572C50.8898 24.1293 52.9278 22.0565 55.1071 19.525C56.6691 21.1545 58.0758 22.6426 58.9049 23.5224L58.8159 23.625L58.8244 23.6333ZM64.913 18.3667C64.9116 18.3653 64.9102 18.3639 64.9088 18.3625C64.9116 18.3597 64.9158 18.3556 64.9172 18.3556H64.9186C66.427 16.5986 68.6063 14.1988 71.1104 12.0456C75.7683 8.04123 78.8105 7.20156 80.542 7.20156C87.0741 7.20156 92.3887 12.2839 92.3887 18.5302C92.3887 24.7404 87.0713 29.82 80.5335 29.8588C80.3598 29.8588 80.1508 29.8435 79.9177 29.813C75.8149 28.2986 72.3702 25.6937 71.4536 24.8609C68.095 21.8154 64.913 18.3667 64.913 18.3667Z" fill="white"/>
</g>
<defs>
<clipPath id="clip0">
<rect width="120" height="60" fill="white"/>
</clipPath>
</defs>
</svg>
