<svg width="32" height="33" viewBox="0 0 32 33" fill="none" xmlns="http://www.w3.org/2000/svg">
<path d="M20.1344 26.3267L21.4677 28.6467C20.1877 29.2334 18.7877 29.6201 17.3344 29.7667V27.0734C18.321 26.9534 19.2544 26.7001 20.1344 26.3267ZM5.42771 17.8334H2.73438C2.88104 19.3001 3.26771 20.6867 3.85438 21.9667L6.17438 20.6334C5.80104 19.7534 5.54771 18.8201 5.42771 17.8334ZM20.1344 6.6734L21.4677 4.3534C20.1877 3.76673 18.801 3.38007 17.3344 3.2334V5.92673C18.321 6.04673 19.2544 6.30007 20.1344 6.6734ZM26.5744 15.1667H29.2677C29.121 13.7001 28.7344 12.3134 28.1477 11.0334L25.8277 12.3667C26.201 13.2467 26.4544 14.1801 26.5744 15.1667ZM11.8677 26.3267L10.5344 28.6467C11.8144 29.2334 13.2144 29.6201 14.6677 29.7667V27.0734C13.681 26.9534 12.7477 26.7001 11.8677 26.3267ZM14.6677 5.92673V3.2334C13.201 3.38007 11.8144 3.76673 10.5344 4.3534L11.8677 6.6734C12.7477 6.30007 13.681 6.04673 14.6677 5.92673ZM24.481 10.0601L26.801 8.7134C25.961 7.5534 24.9344 6.52673 23.7744 5.68673L22.4277 8.00673C23.2144 8.60673 23.8944 9.28673 24.481 10.0601ZM6.17438 12.3667L3.85438 11.0334C3.26771 12.3134 2.88104 13.7001 2.73438 15.1667H5.42771C5.54771 14.1801 5.80104 13.2467 6.17438 12.3667ZM26.5744 17.8334C26.4544 18.8201 26.201 19.7534 25.8277 20.6334L28.1477 21.9667C28.7344 20.6867 29.121 19.2867 29.2677 17.8334H26.5744ZM22.441 24.9801L23.7877 27.3001C24.9477 26.4601 25.9744 25.4334 26.8144 24.2734L24.4944 22.9267C23.8944 23.7134 23.2144 24.3934 22.441 24.9801ZM9.56104 8.02006L8.22771 5.68673C7.05437 6.54007 6.04104 7.5534 5.20104 8.72673L7.52104 10.0734C8.10771 9.28673 8.78771 8.60673 9.56104 8.02006ZM7.52104 22.9401L5.20104 24.2734C6.04104 25.4334 7.06771 26.4601 8.22771 27.3001L9.57437 24.9801C8.78771 24.3934 8.10771 23.7134 7.52104 22.9401ZM17.3344 9.8334H14.6677V17.0467L20.3877 22.7667L22.2677 20.8867L17.3344 15.9534V9.8334Z" fill="#FDCC7F"/>
</svg>
