<svg width="120" height="40" viewBox="0 -2 120 40" fill="none" xmlns="http://www.w3.org/2000/svg">
<g clip-path="url(#clip0)">
<path d="M100.299 18.5315C100.299 8.14237 91.4368 -0.30835 80.542 -0.30835C75.9999 -0.30835 71.0412 1.97511 65.8014 6.47966C63.3312 8.60378 59.5969 12.694 59.5644 12.7342C53.8995 6.54479 46.2799 -0.29865 38.7055 -0.29865H38.6956H38.6858C29.3869 -0.252926 21.571 5.92404 19.492 14.1683C19.1375 15.5733 18.9496 17.0365 18.9496 18.5412C18.9482 28.929 27.8107 37.3797 38.7055 37.3797C43.2476 37.3797 48.2064 35.0963 53.4462 30.5917C55.9234 28.4621 58.0702 26.1855 59.6831 24.3552C65.3466 30.5432 72.9662 37.3797 80.5364 37.3797H80.5462H80.5561C89.8197 37.334 97.6088 31.2042 99.7245 23.007C99.7386 22.9627 99.7499 22.9253 99.757 22.9031C100.11 21.4995 100.299 20.0349 100.299 18.5315ZM60.4217 13.4561C60.4556 13.4201 64.139 9.38248 66.5471 7.3124C71.5736 2.99074 76.2824 0.800124 80.542 0.800124C90.8126 0.800124 99.1694 8.75481 99.1694 18.5315C99.1694 19.9074 98.9999 21.2806 98.6652 22.6163C98.4138 23.4545 96.1258 29.9169 85.4979 30.0029C90.2024 28.1171 93.52 23.6762 93.52 18.5315C93.52 11.6742 87.6984 6.09447 80.5434 6.09447C77.7427 6.09447 74.3192 7.81676 70.3675 11.2142C68.3563 12.9434 66.3155 15.0191 64.1334 17.5547C62.5713 15.9252 61.166 14.4385 60.3384 13.5614L60.3836 13.5074C60.3949 13.4894 60.409 13.4727 60.4217 13.4561ZM38.714 7.21264C39.0092 7.21264 39.6772 7.27084 40.1489 7.37198C44.0555 8.92246 46.9084 11.4207 47.7883 12.2188C51.1469 15.2657 54.3289 18.7144 54.3289 18.7144C52.8205 20.4714 50.6413 22.8712 48.1372 25.0244C43.4793 29.0288 40.4371 29.8685 38.7055 29.8685C32.1734 29.8685 26.8588 24.7861 26.8588 18.5399C26.8588 12.3296 32.1763 7.25005 38.714 7.21264ZM58.8244 23.6333C56.7482 25.9888 54.6876 28.0492 52.7005 29.7576C47.6739 34.0793 42.9652 36.2699 38.7055 36.2699C28.435 36.2713 20.0781 28.3166 20.0781 18.5399C20.0781 17.164 20.2476 15.7908 20.5823 14.4551C20.8337 13.6168 23.1217 7.15445 33.7496 7.06854C29.0451 8.95433 25.7275 13.3952 25.7275 18.5399C25.7275 25.3971 31.5492 30.9769 38.7041 30.9769C41.5048 30.9769 44.9283 29.2546 48.8801 25.8572C50.8898 24.1293 52.9278 22.0565 55.1071 19.525C56.6691 21.1545 58.0758 22.6426 58.9049 23.5224L58.8159 23.625L58.8244 23.6333ZM64.913 18.3667C64.9116 18.3653 64.9102 18.3639 64.9088 18.3625C64.9116 18.3597 64.9158 18.3556 64.9172 18.3556H64.9186C66.427 16.5986 68.6063 14.1988 71.1104 12.0456C75.7683 8.04123 78.8105 7.20156 80.542 7.20156C87.0741 7.20156 92.3887 12.2839 92.3887 18.5302C92.3887 24.7404 87.0713 29.82 80.5335 29.8588C80.3598 29.8588 80.1508 29.8435 79.9177 29.813C75.8149 28.2986 72.3702 25.6937 71.4536 24.8609C68.095 21.8154 64.913 18.3667 64.913 18.3667Z" fill="white"/>
</g>
<defs>
<clipPath id="clip0">
<rect width="120" height="40" fill="white"/>
</clipPath>
</defs>
</svg>
