<svg width="32" height="33" viewBox="0 0 32 33" fill="none" xmlns="http://www.w3.org/2000/svg">
<path d="M16.0007 23.1666C17.4673 23.1666 18.6673 21.9666 18.6673 20.4999C18.6673 19.0333 17.4673 17.8333 16.0007 17.8333C14.534 17.8333 13.334 19.0333 13.334 20.4999C13.334 21.9666 14.534 23.1666 16.0007 23.1666ZM24.0007 11.1666H22.6673V8.49992C22.6673 4.81992 19.6806 1.83325 16.0007 1.83325C12.3207 1.83325 9.33398 4.81992 9.33398 8.49992H11.8673C11.8673 6.21992 13.7207 4.36659 16.0007 4.36659C18.2807 4.36659 20.134 6.21992 20.134 8.49992V11.1666H8.00065C6.53398 11.1666 5.33398 12.3666 5.33398 13.8333V27.1666C5.33398 28.6333 6.53398 29.8333 8.00065 29.8333H24.0007C25.4673 29.8333 26.6673 28.6333 26.6673 27.1666V13.8333C26.6673 12.3666 25.4673 11.1666 24.0007 11.1666ZM24.0007 27.1666H8.00065V13.8333H24.0007V27.1666Z" fill="white"/>
</svg>
