<svg width="32" height="33" viewBox="0 0 32 33" fill="none" xmlns="http://www.w3.org/2000/svg">
<path d="M19.3327 19.4334L23.1993 21.7001L22.1327 23.4334L17.3327 20.5001V13.8334H19.3327V19.4334ZM29.3327 19.1667C29.3327 25.0467 24.546 29.8334 18.666 29.8334C15.9727 29.8334 13.5193 28.8201 11.6393 27.1667H5.33268C3.79935 27.1667 2.66602 26.0334 2.66602 24.5001V12.5001C2.66602 11.0067 3.85268 9.88675 5.33268 9.83341V9.16675C5.33268 5.84675 8.01268 3.16675 11.3327 3.16675C14.4527 3.16675 16.986 5.55341 17.2793 8.60675C17.7327 8.54008 18.1993 8.50008 18.666 8.50008C24.546 8.50008 29.3327 13.2867 29.3327 19.1667ZM7.99935 9.83341H14.666V8.84675C14.506 7.15341 13.066 5.83341 11.3327 5.83341C9.49268 5.83341 7.99935 7.32675 7.99935 9.16675V9.83341ZM26.666 19.1667C26.666 14.7534 23.0793 11.1667 18.666 11.1667C14.2527 11.1667 10.666 14.7534 10.666 19.1667C10.666 23.5801 14.2527 27.1667 18.666 27.1667C23.0793 27.1667 26.666 23.5801 26.666 19.1667Z" fill="#979799"/>
</svg>
