<svg width="19" height="18" viewBox="0 0 19 18" fill="none" xmlns="http://www.w3.org/2000/svg">
    <path d="M11.9987 0.5H4.4987C3.80703 0.5 3.21536 0.916666 2.96536 1.51667L0.448698 7.39167C0.373698 7.58333 0.332031 7.78333 0.332031 8V9.66667C0.332031 10.5833 1.08203 11.3333 1.9987 11.3333H7.25703L6.46536 15.1417L6.44036 15.4083C6.44036 15.75 6.58203 16.0667 6.80703 16.2917L7.69036 17.1667L13.182 11.675C13.482 11.375 13.6654 10.9583 13.6654 10.5V2.16667C13.6654 1.25 12.9154 0.5 11.9987 0.5ZM15.332 0.5V10.5H18.6654V0.5H15.332Z" fill="#F7DFE9"/>
</svg>
