<svg width="19" height="18" viewBox="0 0 19 18" fill="none" xmlns="http://www.w3.org/2000/svg">
    <path d="M0.332031 17.5H3.66536V7.50004H0.332031V17.5ZM18.6654 8.33337C18.6654 7.41671 17.9154 6.66671 16.9987 6.66671H11.7404L12.532 2.85837L12.557 2.59171C12.557 2.25004 12.4154 1.93337 12.1904 1.70837L11.307 0.833374L5.8237 6.32504C5.51536 6.62504 5.33203 7.04171 5.33203 7.50004V15.8334C5.33203 16.75 6.08203 17.5 6.9987 17.5H14.4987C15.1904 17.5 15.782 17.0834 16.032 16.4834L18.5487 10.6084C18.6237 10.4167 18.6654 10.2167 18.6654 10V8.33337Z" fill="#EBF0FA"/>
</svg>
